<svg width="122" height="42" viewBox="0 0 122 42" fill="none" xmlns="http://www.w3.org/2000/svg">
<g filter="url(#filter0_ddiii_1202_5119)">
<g clip-path="url(#clip0_1202_5119)">
<rect x="3" width="36" height="36" rx="4" fill="#5E27FF"/>
<rect width="36" height="36" transform="translate(3)" fill="url(#paint0_linear_1202_5119)"/>
<g filter="url(#filter1_d_1202_5119)">
<ellipse cx="17.1667" cy="14.5" rx="8.16667" ry="8.16667" fill="url(#paint1_linear_1202_5119)"/>
<ellipse cx="24.1667" cy="21.5" rx="8.16667" ry="8.16667" fill="url(#paint2_linear_1202_5119)"/>
</g>
</g>
<rect x="4" y="1" width="34" height="34" rx="3" stroke="url(#paint3_linear_1202_5119)" stroke-width="2"/>
</g>
<path d="M54.29 25.0537C50.1995 25.0537 47 21.7327 47 17.46C47 13.2075 50.1995 9.90674 54.29 9.90674C58.1173 9.90674 61.1143 12.4582 61.6205 16.1842H58.3603C58.016 14.0985 56.396 12.6607 54.3305 12.6607C51.8398 12.6607 50.159 14.625 50.159 17.46C50.159 20.3152 51.8398 22.2997 54.3305 22.2997C56.396 22.2997 57.9958 20.8417 58.3603 18.756H61.6205C61.1143 22.5225 58.1173 25.0537 54.29 25.0537Z" fill="#171A1F"/>
<path d="M69.1562 24.75V23.4135C68.4474 24.426 67.3742 24.9525 65.8959 24.9525C63.6482 24.9525 62.1497 23.6362 62.1497 21.6112C62.1497 19.5052 63.8507 18.3712 67.0097 18.3712C67.6172 18.3712 68.1437 18.4117 68.8119 18.4927V17.8447C68.8119 16.6297 68.1234 15.921 66.9489 15.921C65.7339 15.921 65.0049 16.6297 64.9037 17.8447H62.3724C62.5344 15.354 64.3367 13.734 66.9489 13.734C69.7839 13.734 71.4444 15.2932 71.4444 17.946V24.75H69.1562ZM64.8024 21.5302C64.8024 22.4415 65.4504 23.0085 66.5034 23.0085C67.9412 23.0085 68.8119 22.2187 68.8119 20.9632V20.1937C68.1437 20.0925 67.6779 20.052 67.1919 20.052C65.5922 20.052 64.8024 20.5582 64.8024 21.5302Z" fill="#171A1F"/>
<path d="M83.8533 19.3432C83.8533 22.5427 81.97 24.9525 79.054 24.9525C77.7783 24.9525 76.6848 24.4057 75.8748 23.3527V28.6582H73.06V13.9365H75.652V15.516C76.4823 14.3617 77.677 13.734 79.054 13.734C81.97 13.734 83.8533 16.164 83.8533 19.3432ZM80.9575 19.3432C80.9575 17.3182 79.8033 16.2247 78.4263 16.2247C77.0493 16.2247 75.895 17.298 75.895 19.3432C75.895 21.3885 77.0493 22.4415 78.4263 22.4415C79.8033 22.4415 80.9575 21.4087 80.9575 19.3432Z" fill="#171A1F"/>
<path d="M93.9797 21.2872C93.9797 23.5552 92.2584 24.9525 89.1804 24.9525C86.1024 24.9525 84.3812 23.4742 84.1584 21.0645H86.8517C86.8719 22.1782 87.8237 22.887 89.2209 22.887C90.3144 22.887 91.1447 22.5427 91.1447 21.7732C91.1447 21.0847 90.6992 20.8012 89.6664 20.5987L87.7224 20.2342C85.7784 19.89 84.6039 18.8167 84.6039 17.136C84.6039 15.1312 86.3252 13.734 89.0184 13.734C91.7319 13.734 93.5949 15.1717 93.7974 17.5005H91.1042C91.0029 16.4475 90.2132 15.7995 89.0184 15.7995C87.9857 15.7995 87.2972 16.1842 87.2972 16.8727C87.2972 17.5207 87.7427 17.784 88.7147 17.9662L90.8004 18.351C92.9064 18.756 93.9797 19.728 93.9797 21.2872Z" fill="#171A1F"/>
<path d="M101.673 20.1937V13.9365H104.467V24.75H101.895V23.3325C101.308 24.2842 100.113 24.9525 98.7364 24.9525C96.5696 24.9525 94.9901 23.6362 94.9901 20.8215V13.9365H97.8049V20.2747C97.8049 21.7935 98.5541 22.4617 99.6881 22.4617C100.701 22.4617 101.673 21.6517 101.673 20.1937Z" fill="#171A1F"/>
<path d="M109.021 24.75H106.186V10.2105H109.021V24.75Z" fill="#171A1F"/>
<path d="M115.433 24.9322C112.193 24.9322 110.027 22.6845 110.027 19.3027C110.027 16.083 112.274 13.734 115.393 13.734C118.815 13.734 121.083 16.5082 120.577 20.0317H112.902C113.084 21.7935 113.935 22.7655 115.373 22.7655C116.608 22.7655 117.438 22.158 117.762 21.0847H120.557C119.949 23.535 118.066 24.9322 115.433 24.9322ZM115.332 15.7995C114.016 15.7995 113.186 16.65 112.943 18.2497H117.6C117.519 16.7512 116.669 15.7995 115.332 15.7995Z" fill="#171A1F"/>
<defs>
<filter id="filter0_ddiii_1202_5119" x="0" y="-3" width="42" height="45" filterUnits="userSpaceOnUse" color-interpolation-filters="sRGB">
<feFlood flood-opacity="0" result="BackgroundImageFix"/>
<feColorMatrix in="SourceAlpha" type="matrix" values="0 0 0 0 0 0 0 0 0 0 0 0 0 0 0 0 0 0 127 0" result="hardAlpha"/>
<feOffset dy="1"/>
<feGaussianBlur stdDeviation="0.5"/>
<feComposite in2="hardAlpha" operator="out"/>
<feColorMatrix type="matrix" values="0 0 0 0 0.162923 0 0 0 0 0.162923 0 0 0 0 0.162923 0 0 0 0.08 0"/>
<feBlend mode="normal" in2="BackgroundImageFix" result="effect1_dropShadow_1202_5119"/>
<feColorMatrix in="SourceAlpha" type="matrix" values="0 0 0 0 0 0 0 0 0 0 0 0 0 0 0 0 0 0 127 0" result="hardAlpha"/>
<feMorphology radius="1" operator="erode" in="SourceAlpha" result="effect2_dropShadow_1202_5119"/>
<feOffset dy="3"/>
<feGaussianBlur stdDeviation="2"/>
<feComposite in2="hardAlpha" operator="out"/>
<feColorMatrix type="matrix" values="0 0 0 0 0.164706 0 0 0 0 0.164706 0 0 0 0 0.164706 0 0 0 0.14 0"/>
<feBlend mode="normal" in2="effect1_dropShadow_1202_5119" result="effect2_dropShadow_1202_5119"/>
<feBlend mode="normal" in="SourceGraphic" in2="effect2_dropShadow_1202_5119" result="shape"/>
<feColorMatrix in="SourceAlpha" type="matrix" values="0 0 0 0 0 0 0 0 0 0 0 0 0 0 0 0 0 0 127 0" result="hardAlpha"/>
<feOffset dy="-3"/>
<feGaussianBlur stdDeviation="1.5"/>
<feComposite in2="hardAlpha" operator="arithmetic" k2="-1" k3="1"/>
<feColorMatrix type="matrix" values="0 0 0 0 0 0 0 0 0 0 0 0 0 0 0 0 0 0 0.1 0"/>
<feBlend mode="normal" in2="shape" result="effect3_innerShadow_1202_5119"/>
<feColorMatrix in="SourceAlpha" type="matrix" values="0 0 0 0 0 0 0 0 0 0 0 0 0 0 0 0 0 0 127 0" result="hardAlpha"/>
<feOffset dy="3"/>
<feGaussianBlur stdDeviation="1.5"/>
<feComposite in2="hardAlpha" operator="arithmetic" k2="-1" k3="1"/>
<feColorMatrix type="matrix" values="0 0 0 0 1 0 0 0 0 1 0 0 0 0 1 0 0 0 0.1 0"/>
<feBlend mode="normal" in2="effect3_innerShadow_1202_5119" result="effect4_innerShadow_1202_5119"/>
<feColorMatrix in="SourceAlpha" type="matrix" values="0 0 0 0 0 0 0 0 0 0 0 0 0 0 0 0 0 0 127 0" result="hardAlpha"/>
<feMorphology radius="1" operator="erode" in="SourceAlpha" result="effect5_innerShadow_1202_5119"/>
<feOffset/>
<feComposite in2="hardAlpha" operator="arithmetic" k2="-1" k3="1"/>
<feColorMatrix type="matrix" values="0 0 0 0 0.0627451 0 0 0 0 0.0941176 0 0 0 0 0.156863 0 0 0 0.24 0"/>
<feBlend mode="normal" in2="effect4_innerShadow_1202_5119" result="effect5_innerShadow_1202_5119"/>
</filter>
<filter id="filter1_d_1202_5119" x="6" y="3.25" width="29.3333" height="34" filterUnits="userSpaceOnUse" color-interpolation-filters="sRGB">
<feFlood flood-opacity="0" result="BackgroundImageFix"/>
<feColorMatrix in="SourceAlpha" type="matrix" values="0 0 0 0 0 0 0 0 0 0 0 0 0 0 0 0 0 0 127 0" result="hardAlpha"/>
<feMorphology radius="1.5" operator="erode" in="SourceAlpha" result="effect1_dropShadow_1202_5119"/>
<feOffset dy="2.25"/>
<feGaussianBlur stdDeviation="2.25"/>
<feComposite in2="hardAlpha" operator="out"/>
<feColorMatrix type="matrix" values="0 0 0 0 0.141176 0 0 0 0 0.141176 0 0 0 0 0.141176 0 0 0 0.1 0"/>
<feBlend mode="normal" in2="BackgroundImageFix" result="effect1_dropShadow_1202_5119"/>
<feBlend mode="normal" in="SourceGraphic" in2="effect1_dropShadow_1202_5119" result="shape"/>
</filter>
<linearGradient id="paint0_linear_1202_5119" x1="18" y1="4.47035e-07" x2="19.5" y2="36" gradientUnits="userSpaceOnUse">
<stop stop-color="white" stop-opacity="0"/>
<stop offset="1" stop-color="white" stop-opacity="0.12"/>
</linearGradient>
<linearGradient id="paint1_linear_1202_5119" x1="17.1667" y1="6.33337" x2="17.1667" y2="22.6667" gradientUnits="userSpaceOnUse">
<stop stop-color="white" stop-opacity="0.8"/>
<stop offset="1" stop-color="white" stop-opacity="0.5"/>
</linearGradient>
<linearGradient id="paint2_linear_1202_5119" x1="24.1667" y1="13.3334" x2="24.1667" y2="29.6667" gradientUnits="userSpaceOnUse">
<stop stop-color="white" stop-opacity="0.8"/>
<stop offset="1" stop-color="white" stop-opacity="0.5"/>
</linearGradient>
<linearGradient id="paint3_linear_1202_5119" x1="21" y1="0" x2="21" y2="36" gradientUnits="userSpaceOnUse">
<stop stop-color="white" stop-opacity="0.12"/>
<stop offset="1" stop-color="white" stop-opacity="0"/>
</linearGradient>
<clipPath id="clip0_1202_5119">
<rect x="3" width="36" height="36" rx="4" fill="white"/>
</clipPath>
</defs>
</svg>
